<svg width="393" height="3592" viewBox="0 0 393 3592" fill="none" xmlns="http://www.w3.org/2000/svg">
<g clip-path="url(#clip0_232_418)">
<rect width="393" height="3592" fill="white"/>
<g filter="url(#filter0_b_232_418)">
<rect width="393" height="3592" fill="url(#paint0_linear_232_418)" fill-opacity="0.8"/>
</g>
<g clip-path="url(#clip1_232_418)">
<path d="M104.713 918.234L5.31543 818.836L-90.2525 987.821L-90.0157 988.058C-92.253 991.475 -88.9626 999.189 -82.2608 1005.89C-75.5591 1012.59 -67.8445 1015.88 -64.4281 1013.65L-64.2669 1013.81L104.713 918.234Z" fill="url(#paint1_linear_232_418)"/>
<path d="M43.6717 879.878C71.0834 907.289 98.4937 924.322 104.894 917.922C111.295 911.521 94.2624 884.11 66.8507 856.699C39.439 829.287 12.0286 812.254 5.62791 818.655C-0.772788 825.056 16.26 852.466 43.6717 879.878Z" fill="url(#paint2_radial_232_418)"/>
</g>
<path d="M271.395 114.307L391.777 253.531L474.666 92.0023L474.38 91.6705C476.387 88.4916 471.853 78.9429 463.736 69.5559C455.62 60.1689 446.826 54.303 443.39 55.8304L443.195 55.6046L271.395 114.307Z" fill="url(#paint3_linear_232_418)"/>
<path d="M342.506 174.477C309.307 136.082 277.399 109.276 271.237 114.604C265.075 119.932 286.992 155.377 320.191 193.772C353.389 232.167 385.297 258.973 391.459 253.645C397.622 248.317 375.704 212.872 342.506 174.477Z" fill="url(#paint4_radial_232_418)"/>
<g clip-path="url(#clip2_232_418)">
<path d="M204.258 1466.56L283.563 1636.67L480.662 1468.31L480.473 1467.91C484.841 1464.64 484.237 1453.46 478.89 1441.99C473.543 1430.52 465.367 1422.87 460.058 1424.11L459.929 1423.84L204.258 1466.56Z" fill="url(#paint5_linear_232_418)"/>
<path d="M263.323 1542.57C241.452 1495.65 214.842 1461.76 203.887 1466.87C192.933 1471.97 201.782 1514.15 223.653 1561.06C245.523 1607.97 272.134 1641.87 283.088 1636.76C294.043 1631.65 285.194 1589.48 263.323 1542.57Z" fill="url(#paint6_radial_232_418)"/>
</g>
<g clip-path="url(#clip3_232_418)">
<path d="M355.752 2774.05L258.192 2617.99L151.468 2764.86L151.7 2765.23C149.228 2768.06 152.242 2778.2 158.82 2788.72C165.398 2799.24 173.186 2806.39 176.815 2805.41L176.973 2805.66L355.752 2774.05Z" fill="url(#paint7_linear_232_418)"/>
<path d="M294.731 2703.67C321.636 2746.71 349.047 2778.1 355.954 2773.78C362.862 2769.47 346.651 2731.07 319.746 2688.03C292.841 2644.99 265.431 2613.6 258.523 2617.92C251.615 2622.24 267.826 2660.63 294.731 2703.67Z" fill="url(#paint8_radial_232_418)"/>
</g>
<path d="M32.1578 3073.94C-7.02297 3072.37 -37.5128 3039.34 -35.943 3000.16C-34.3733 2960.98 -1.33847 2930.49 37.8423 2932.06C77.0231 2933.63 107.513 2966.66 105.943 3005.84C104.373 3045.02 71.3386 3075.51 32.1578 3073.94Z" fill="url(#paint9_diamond_232_418)"/>
<path d="M366.996 1251.25C301.138 1232.47 262.974 1163.85 281.753 1098C300.533 1032.14 369.145 993.974 435.004 1012.75C500.862 1031.53 539.026 1100.15 520.247 1166C501.467 1231.86 432.855 1270.03 366.996 1251.25Z" fill="url(#paint10_diamond_232_418)"/>
<path d="M68 1483.5C68 1521.33 37.3315 1552 -0.5 1552C-38.3315 1552 -69 1521.33 -69 1483.5C-69 1445.67 -38.3315 1415 -0.5 1415C37.3315 1415 68 1445.67 68 1483.5Z" fill="url(#paint11_diamond_232_418)"/>
<path d="M110 2215.5C110 2253.33 79.3315 2284 41.5 2284C3.6685 2284 -27 2253.33 -27 2215.5C-27 2177.67 3.6685 2147 41.5 2147C79.3315 2147 110 2177.67 110 2215.5Z" fill="url(#paint12_diamond_232_418)"/>
<path d="M140 1614.5C140 1633.55 124.554 1649 105.5 1649C86.4462 1649 71 1633.55 71 1614.5C71 1595.45 86.4462 1580 105.5 1580C124.554 1580 140 1595.45 140 1614.5Z" fill="url(#paint13_diamond_232_418)"/>
<path d="M294.006 2441.64C276.1 2448.15 256.305 2438.91 249.792 2421.01C243.279 2403.1 252.516 2383.3 270.422 2376.79C288.328 2370.28 308.124 2379.52 314.636 2397.42C321.149 2415.33 311.913 2435.12 294.006 2441.64Z" fill="url(#paint14_diamond_232_418)"/>
<path d="M432 1895.5C432 1948.8 388.795 1992 335.5 1992C282.205 1992 239 1948.8 239 1895.5C239 1842.2 282.205 1799 335.5 1799C388.795 1799 432 1842.2 432 1895.5Z" fill="url(#paint15_diamond_232_418)"/>
<path d="M453 3271C453 3330.09 405.094 3378 346 3378C286.906 3378 239 3330.09 239 3271C239 3211.91 286.906 3164 346 3164C405.094 3164 453 3211.91 453 3271Z" fill="url(#paint16_diamond_232_418)"/>
<path d="M159 1799C159 1831.03 133.033 1857 101 1857C68.9675 1857 43 1831.03 43 1799C43 1766.97 68.9675 1741 101 1741C133.033 1741 159 1766.97 159 1799Z" fill="url(#paint17_diamond_232_418)"/>
<path d="M339.938 2799.42C327.004 2770.11 340.277 2735.87 369.582 2722.94C398.888 2710 433.129 2723.28 446.062 2752.58C458.996 2781.89 445.723 2816.13 416.417 2829.06C387.112 2842 352.871 2828.72 339.938 2799.42Z" fill="url(#paint18_diamond_232_418)"/>
<path d="M60 204.5C60 226.315 42.3152 244 20.5 244C-1.31525 244 -19 226.315 -19 204.5C-19 182.685 -1.31525 165 20.5 165C42.3152 165 60 182.685 60 204.5Z" fill="url(#paint19_diamond_232_418)"/>
<path d="M426.673 408.298L359.397 387.758L416.021 338.767L426.673 408.298Z" fill="#E75391"/>
<path d="M366.398 459.093L300.98 433.238L361.342 388.933L366.398 459.093Z" fill="#6709DF"/>
<path d="M297.51 503.802L236.263 469.208L302.137 433.612L297.51 503.802Z" fill="#BCEEEB"/>
<path d="M217.808 536.334L167.339 487.335L240.088 469.614L217.808 536.334Z" fill="#5378D9"/>
<path d="M143.867 557.037L99.7073 502.284L174.068 493.508L143.867 557.037Z" fill="#FCAEF4"/>
<path d="M60.1253 559.296L23.7737 499.075L98.6377 500.434L60.1253 559.296Z" fill="#BDE3C7"/>
<path d="M-7.87554 559.215L-44.2271 498.994L30.6368 500.352L-7.87554 559.215Z" fill="#530086"/>
<path d="M-49.9271 501.471C3.46263 503.953 128.172 504.091 199.892 484.793C271.611 465.496 375.686 373.604 418.758 330.07" stroke="white" stroke-width="10" stroke-linecap="round"/>
<path d="M408.854 2313.23L341.669 2292.4L398.508 2243.66L408.854 2313.23Z" fill="#E75391"/>
<path d="M348.357 2363.76L283.053 2337.62L343.609 2293.58L348.357 2363.76Z" fill="#6709DF"/>
<path d="M279.272 2408.17L218.178 2373.31L284.208 2338L279.272 2408.17Z" fill="#BCEEEB"/>
<path d="M199.427 2440.35L149.174 2391.13L222.001 2373.73L199.427 2440.35Z" fill="#5378D9"/>
<path d="M125.396 2460.73L81.4779 2405.78L155.876 2397.33L125.396 2460.73Z" fill="#FCAEF4"/>
<path d="M41.6453 2462.62L5.55922 2402.24L80.4164 2403.93L41.6453 2462.62Z" fill="#BDE3C7"/>
<path d="M-26.3547 2462.24L-62.4408 2401.86L12.4164 2403.54L-26.3547 2462.24Z" fill="#530086"/>
<path d="M-68.1423 2412.29C-14.7639 2415.01 109.944 2415.7 181.747 2396.71C253.551 2377.73 358.027 2286.3 401.29 2242.96" stroke="white" stroke-width="10" stroke-linecap="round"/>
<path d="M-26.2225 696.761L41.7751 678.753L-12.9767 627.677L-26.2225 696.761Z" fill="#E75391"/>
<path d="M32.1098 749.775L98.4492 726.386L39.7875 679.854L32.1098 749.775Z" fill="#6709DF"/>
<path d="M99.2771 797.03L161.776 764.752L97.2795 726.717L99.2771 797.03Z" fill="#BCEEEB"/>
<path d="M177.707 832.521L229.974 785.445L157.939 765.014L177.707 832.521Z" fill="#5378D9"/>
<path d="M250.821 855.976L296.998 802.913L223.019 791.362L250.821 855.976Z" fill="#FCAEF4"/>
<path d="M334.42 861.366L372.999 802.547L298.137 801.104L334.42 861.366Z" fill="#BDE3C7"/>
<path d="M402.376 863.828L440.955 805.01L366.093 803.567L402.376 863.828Z" fill="#530086"/>
<path d="M446.637 808.984C393.192 809.458 268.565 804.912 197.614 782.933C126.664 760.955 26.0852 665.217 -15.3352 620.096" stroke="white" stroke-width="10" stroke-linecap="round"/>
<g filter="url(#filter1_b_232_418)">
<rect width="393" height="3592" fill="white" fill-opacity="0.3"/>
</g>
</g>
<defs>
<filter id="filter0_b_232_418" x="-10" y="-10" width="413" height="3612" filterUnits="userSpaceOnUse" color-interpolation-filters="sRGB">
<feFlood flood-opacity="0" result="BackgroundImageFix"/>
<feGaussianBlur in="BackgroundImageFix" stdDeviation="5"/>
<feComposite in2="SourceAlpha" operator="in" result="effect1_backgroundBlur_232_418"/>
<feBlend mode="normal" in="SourceGraphic" in2="effect1_backgroundBlur_232_418" result="shape"/>
</filter>
<filter id="filter1_b_232_418" x="-10" y="-10" width="413" height="3612" filterUnits="userSpaceOnUse" color-interpolation-filters="sRGB">
<feFlood flood-opacity="0" result="BackgroundImageFix"/>
<feGaussianBlur in="BackgroundImageFix" stdDeviation="5"/>
<feComposite in2="SourceAlpha" operator="in" result="effect1_backgroundBlur_232_418"/>
<feBlend mode="normal" in="SourceGraphic" in2="effect1_backgroundBlur_232_418" result="shape"/>
</filter>
<linearGradient id="paint0_linear_232_418" x1="0" y1="0" x2="2854.44" y2="2088.37" gradientUnits="userSpaceOnUse">
<stop stop-color="#A54BFF"/>
<stop offset="0.362724" stop-color="#BDE3C7"/>
<stop offset="0.632383" stop-color="#FCAEF4"/>
<stop offset="0.859375" stop-color="#72CBD7"/>
<stop offset="1" stop-color="#72CBD7"/>
</linearGradient>
<linearGradient id="paint1_linear_232_418" x1="-28.9264" y1="879.684" x2="-63.8113" y2="1015.19" gradientUnits="userSpaceOnUse">
<stop stop-color="#BDE3C7"/>
<stop offset="1" stop-color="#A54BFF"/>
</linearGradient>
<radialGradient id="paint2_radial_232_418" cx="0" cy="0" r="1" gradientUnits="userSpaceOnUse" gradientTransform="translate(49.4363 877.58) rotate(135) scale(24.585 80.0787)">
<stop stop-color="#A54BFF"/>
<stop offset="1" stop-color="#BDE3C7"/>
</radialGradient>
<linearGradient id="paint3_linear_232_418" x1="421.438" y1="195.32" x2="483.081" y2="74.6512" gradientUnits="userSpaceOnUse">
<stop stop-color="#FCAEF4"/>
<stop offset="1" stop-color="#530086"/>
</linearGradient>
<radialGradient id="paint4_radial_232_418" cx="0" cy="0" r="1" gradientUnits="userSpaceOnUse" gradientTransform="translate(336.526 175.404) rotate(-40.8485) scale(22.1253 104.85)">
<stop stop-color="#6709DF"/>
<stop offset="1" stop-color="#E75391"/>
</radialGradient>
<linearGradient id="paint5_linear_232_418" x1="354.321" y1="1575.97" x2="459.988" y2="1421.9" gradientUnits="userSpaceOnUse">
<stop stop-color="#E75391"/>
<stop offset="1" stop-color="#5378D9"/>
</linearGradient>
<radialGradient id="paint6_radial_232_418" cx="0" cy="0" r="1" gradientUnits="userSpaceOnUse" gradientTransform="translate(255.041 1542.82) rotate(-24.9942) scale(32.8269 106.924)">
<stop stop-color="#E75391"/>
<stop offset="1" stop-color="#5378D9"/>
</radialGradient>
<linearGradient id="paint7_linear_232_418" x1="219.938" y1="2670.95" x2="140.487" y2="2780.71" gradientUnits="userSpaceOnUse">
<stop stop-color="#FCAEF4"/>
<stop offset="1" stop-color="#530086"/>
</linearGradient>
<radialGradient id="paint8_radial_232_418" cx="0" cy="0" r="1" gradientUnits="userSpaceOnUse" gradientTransform="translate(300.783 2703.67) rotate(147.99) scale(22.1253 104.85)">
<stop stop-color="#6709DF"/>
<stop offset="1" stop-color="#E75391"/>
</radialGradient>
<radialGradient id="paint9_diamond_232_418" cx="0" cy="0" r="1" gradientUnits="userSpaceOnUse" gradientTransform="translate(68.3957 3039.18) rotate(-129.228) scale(175.073 124.28)">
<stop stop-color="#5378D9"/>
<stop offset="0.6875" stop-color="#BDE3C7"/>
<stop offset="1" stop-color="#FFECFD"/>
</radialGradient>
<radialGradient id="paint10_diamond_232_418" cx="0" cy="0" r="1" gradientUnits="userSpaceOnUse" gradientTransform="translate(463.005 1239.11) rotate(-112.316) scale(521.947 370.517)">
<stop stop-color="#5378D9"/>
<stop offset="0.6875" stop-color="#FCAEF4"/>
<stop offset="1" stop-color="#FFECFD"/>
</radialGradient>
<radialGradient id="paint11_diamond_232_418" cx="0" cy="0" r="1" gradientUnits="userSpaceOnUse" gradientTransform="translate(47.0081 1434.33) rotate(141.769) scale(288.334 204.681)">
<stop stop-color="#5378D9"/>
<stop offset="0.6875" stop-color="#FCAEF4"/>
<stop offset="1" stop-color="#FFECFD"/>
</radialGradient>
<radialGradient id="paint12_diamond_232_418" cx="0" cy="0" r="1" gradientUnits="userSpaceOnUse" gradientTransform="translate(89.0081 2166.33) rotate(141.769) scale(288.334 204.681)">
<stop stop-color="#5378D9"/>
<stop offset="0.6875" stop-color="#FCAEF4"/>
<stop offset="1" stop-color="#FFECFD"/>
</radialGradient>
<radialGradient id="paint13_diamond_232_418" cx="0" cy="0" r="1" gradientUnits="userSpaceOnUse" gradientTransform="translate(129.427 1589.74) rotate(141.769) scale(145.219 103.087)">
<stop stop-color="#FCAEF4"/>
<stop offset="0.6875" stop-color="#BDE3C7"/>
<stop offset="1" stop-color="#FFECFD"/>
</radialGradient>
<radialGradient id="paint14_diamond_232_418" cx="0" cy="0" r="1" gradientUnits="userSpaceOnUse" gradientTransform="translate(313.663 2423.24) rotate(-148.218) scale(145.219 103.087)">
<stop stop-color="#FCAEF4"/>
<stop offset="0.6875" stop-color="#BDE3C7"/>
<stop offset="1" stop-color="#FFECFD"/>
</radialGradient>
<radialGradient id="paint15_diamond_232_418" cx="0" cy="0" r="1" gradientUnits="userSpaceOnUse" gradientTransform="translate(402.427 1826.24) rotate(141.769) scale(406.193 288.346)">
<stop stop-color="#BDE3C7"/>
<stop offset="0.6875" stop-color="#530086"/>
<stop offset="1" stop-color="#530086"/>
</radialGradient>
<radialGradient id="paint16_diamond_232_418" cx="0" cy="0" r="1" gradientUnits="userSpaceOnUse" gradientTransform="translate(420.21 3194.2) rotate(141.769) scale(450.39 319.72)">
<stop stop-color="#BDE3C7"/>
<stop offset="0.6875" stop-color="#530086"/>
<stop offset="1" stop-color="#530086"/>
</radialGradient>
<radialGradient id="paint17_diamond_232_418" cx="0" cy="0" r="1" gradientUnits="userSpaceOnUse" gradientTransform="translate(141.226 1757.37) rotate(141.769) scale(244.137 173.306)">
<stop stop-color="#BDE3C7"/>
<stop offset="0.6875" stop-color="#E75391"/>
<stop offset="1" stop-color="#FCAEF4"/>
</radialGradient>
<radialGradient id="paint18_diamond_232_418" cx="0" cy="0" r="1" gradientUnits="userSpaceOnUse" gradientTransform="translate(373.006 2830.33) rotate(-62.044) scale(244.137 173.306)">
<stop stop-color="#BDE3C7"/>
<stop offset="0.6875" stop-color="#E75391"/>
<stop offset="1" stop-color="#FCAEF4"/>
</radialGradient>
<radialGradient id="paint19_diamond_232_418" cx="0" cy="0" r="1" gradientUnits="userSpaceOnUse" gradientTransform="translate(39.8702 185.13) rotate(138.478) scale(97.3998 69.1416)">
<stop stop-color="#5378D9"/>
<stop offset="0.6875" stop-color="#BDE3C7"/>
<stop offset="1" stop-color="#FFECFD"/>
</radialGradient>
<clipPath id="clip0_232_418">
<rect width="393" height="3592" fill="white"/>
</clipPath>
<clipPath id="clip1_232_418">
<rect width="140.569" height="210.932" fill="white" transform="translate(17.1519 807) rotate(45)"/>
</clipPath>
<clipPath id="clip2_232_418">
<rect width="187.694" height="281.645" fill="white" transform="translate(263.305 1646.12) rotate(-114.994)"/>
</clipPath>
<clipPath id="clip3_232_418">
<rect width="184.052" height="189.829" fill="white" transform="translate(270.966 2610) rotate(57.9899)"/>
</clipPath>
</defs>
</svg>
